<svg width="252" height="80" viewBox="0 0 252 80" fill="none" xmlns="http://www.w3.org/2000/svg">
<rect width="80" height="80" rx="20" fill="url(#paint0_radial_15_648)"/>
<path d="M49.5851 19.1665L45.4357 38.0183L60.8894 49.5851L42.0376 45.4357L30.4708 60.8894L34.6202 42.0376L19.1665 30.4708L38.0183 34.6202L49.5851 19.1665Z" fill="white"/>
<path d="M30.1834 41.4783L29.5416 44.3942L31.9319 46.1834L29.0159 45.5415L27.2268 47.9319L27.8686 45.0159L25.4783 43.2268L28.3942 43.8686L30.1834 41.4783Z" fill="white" fill-opacity="0.2"/>
<path d="M54.567 32.4783L53.9251 35.3942L56.3155 37.1834L53.3995 36.5415L51.6104 38.9319L52.2522 36.0159L49.8619 34.2268L52.7778 34.8686L54.567 32.4783Z" fill="white" fill-opacity="0.2"/>
<path d="M95.8828 13.8926L100.961 11.2559H102.523V25.7334C103.874 25.0986 105.136 24.5778 106.308 24.1709C107.496 23.764 108.578 23.5605 109.555 23.5605C111.036 23.5605 112.403 23.8617 113.656 24.4639C114.926 25.0498 116.016 25.8555 116.928 26.8809C117.839 27.89 118.555 29.07 119.076 30.4209C119.597 31.7718 119.857 33.2041 119.857 34.7178C119.857 36.0524 119.687 37.3464 119.345 38.5996C119.019 39.8366 118.555 41.0003 117.953 42.0908C117.351 43.1813 116.627 44.1823 115.78 45.0938C114.934 46.0052 113.99 46.7865 112.948 47.4375C111.923 48.0723 110.808 48.5687 109.604 48.9268C108.415 49.2848 107.178 49.4639 105.893 49.4639C104.021 49.4639 102.23 49.2116 100.521 48.707C98.8125 48.2025 97.2663 47.3968 95.8828 46.29V13.8926ZM102.523 44.4834C102.833 44.7113 103.134 44.931 103.427 45.1426C103.736 45.3542 104.062 45.5413 104.403 45.7041C104.745 45.8669 105.111 45.9971 105.502 46.0947C105.909 46.1924 106.365 46.2412 106.869 46.2412C107.781 46.2412 108.611 45.9889 109.359 45.4844C110.124 44.9635 110.775 44.2555 111.312 43.3604C111.85 42.4489 112.265 41.3828 112.558 40.1621C112.851 38.9251 112.997 37.5986 112.997 36.1826C112.997 35.1247 112.842 34.1318 112.533 33.2041C112.24 32.2601 111.825 31.4382 111.288 30.7383C110.767 30.0221 110.149 29.4606 109.433 29.0537C108.733 28.6468 107.984 28.4434 107.187 28.4434C106.373 28.4434 105.543 28.6549 104.696 29.0781C103.866 29.485 103.142 30.0059 102.523 30.6406V44.4834ZM136.996 49.5615C135.287 49.5615 133.684 49.236 132.187 48.585C130.689 47.9176 129.379 47.0306 128.256 45.9238C127.133 44.8008 126.246 43.5068 125.595 42.042C124.96 40.5609 124.643 38.9984 124.643 37.3545C124.643 35.3851 124.936 33.5622 125.521 31.8857C126.124 30.193 126.97 28.7282 128.061 27.4912C129.151 26.2542 130.461 25.2939 131.991 24.6104C133.537 23.9105 135.246 23.5605 137.118 23.5605C138.795 23.5605 140.325 23.8372 141.708 24.3906C143.091 24.944 144.28 25.7008 145.272 26.6611C146.265 27.6214 147.03 28.7526 147.567 30.0547C148.121 31.3568 148.397 32.7484 148.397 34.2295H131.088C131.153 35.613 131.373 36.9313 131.747 38.1846C132.121 39.4378 132.618 40.5446 133.236 41.5049C133.871 42.4489 134.612 43.2057 135.458 43.7754C136.321 44.3288 137.265 44.6055 138.29 44.6055C139.185 44.6055 140.064 44.4671 140.927 44.1904C141.789 43.8975 142.579 43.5068 143.295 43.0186C144.011 42.5303 144.63 41.9606 145.15 41.3096C145.688 40.6585 146.07 39.9587 146.298 39.21L149.276 39.6982C148.886 41.0492 148.275 42.3268 147.445 43.5312C146.615 44.7194 145.647 45.7611 144.54 46.6562C143.433 47.5514 142.229 48.2594 140.927 48.7803C139.625 49.3011 138.314 49.5615 136.996 49.5615ZM140.683 31.6416C140.618 30.9092 140.447 30.2419 140.17 29.6396C139.893 29.0212 139.535 28.4922 139.096 28.0527C138.656 27.6133 138.144 27.2796 137.558 27.0518C136.988 26.8076 136.369 26.6855 135.702 26.6855C135.165 26.6855 134.636 26.8076 134.115 27.0518C133.611 27.2796 133.155 27.6133 132.748 28.0527C132.341 28.4759 131.991 28.9967 131.698 29.6152C131.422 30.2174 131.243 30.8929 131.161 31.6416H140.683ZM162.24 49H155.673V13.8926L160.678 11.2559H162.24V49ZM170.858 55.1768C171.119 55.307 171.526 55.4779 172.079 55.6895C172.632 55.901 173.324 56.0068 174.154 56.0068C174.512 56.0068 174.862 55.8766 175.204 55.6162C175.562 55.3721 175.904 55.0384 176.229 54.6152C176.555 54.2083 176.864 53.7445 177.157 53.2236C177.45 52.7028 177.719 52.1657 177.963 51.6123C178.549 50.3265 179.102 48.8617 179.623 47.2178L167.44 24H174.569L182.797 39.6494L190.316 24H194.784L180.966 54.1025C180.51 55.0791 179.94 55.9661 179.257 56.7637C178.59 57.5612 177.857 58.2367 177.06 58.79C176.278 59.3597 175.456 59.7992 174.594 60.1084C173.747 60.4176 172.917 60.5723 172.104 60.5723C171.485 60.5723 170.891 60.4909 170.321 60.3281C169.768 60.1816 169.28 59.9456 168.856 59.6201L170.858 55.1768ZM215.243 18.1895C215.146 17.8477 215.007 17.4408 214.828 16.9688C214.665 16.4967 214.421 16.041 214.096 15.6016C213.77 15.1621 213.339 14.7959 212.802 14.5029C212.281 14.1937 211.614 14.0391 210.8 14.0391C209.97 14.0391 209.319 14.3809 208.847 15.0645C208.391 15.7318 208.163 16.749 208.163 18.1162V24H214.389V27.0518H208.163V49H201.571V27.0518H196.688V24H201.571V21.2168C201.571 19.931 201.815 18.694 202.304 17.5059C202.792 16.3014 203.476 15.2354 204.354 14.3076C205.233 13.3799 206.275 12.6393 207.479 12.0859C208.684 11.5326 210.002 11.2559 211.435 11.2559C212.574 11.2559 213.567 11.4268 214.413 11.7686C215.259 12.0941 215.984 12.501 216.586 12.9893C217.204 13.4775 217.717 13.9984 218.124 14.5518C218.531 15.0889 218.865 15.5609 219.125 15.9678L215.243 18.1895ZM228.939 49.5615C227.23 49.5615 225.627 49.236 224.13 48.585C222.632 47.9176 221.322 47.0306 220.199 45.9238C219.076 44.8008 218.189 43.5068 217.538 42.042C216.903 40.5609 216.586 38.9984 216.586 37.3545C216.586 35.3851 216.879 33.5622 217.465 31.8857C218.067 30.193 218.913 28.7282 220.004 27.4912C221.094 26.2542 222.405 25.2939 223.935 24.6104C225.481 23.9105 227.19 23.5605 229.062 23.5605C230.738 23.5605 232.268 23.8372 233.651 24.3906C235.035 24.944 236.223 25.7008 237.216 26.6611C238.209 27.6214 238.974 28.7526 239.511 30.0547C240.064 31.3568 240.341 32.7484 240.341 34.2295H223.031C223.096 35.613 223.316 36.9313 223.69 38.1846C224.065 39.4378 224.561 40.5446 225.18 41.5049C225.814 42.4489 226.555 43.2057 227.401 43.7754C228.264 44.3288 229.208 44.6055 230.233 44.6055C231.129 44.6055 232.007 44.4671 232.87 44.1904C233.733 43.8975 234.522 43.5068 235.238 43.0186C235.954 42.5303 236.573 41.9606 237.094 41.3096C237.631 40.6585 238.013 39.9587 238.241 39.21L241.22 39.6982C240.829 41.0492 240.219 42.3268 239.389 43.5312C238.559 44.7194 237.59 45.7611 236.483 46.6562C235.377 47.5514 234.172 48.2594 232.87 48.7803C231.568 49.3011 230.258 49.5615 228.939 49.5615ZM232.626 31.6416C232.561 30.9092 232.39 30.2419 232.113 29.6396C231.837 29.0212 231.479 28.4922 231.039 28.0527C230.6 27.6133 230.087 27.2796 229.501 27.0518C228.931 26.8076 228.313 26.6855 227.646 26.6855C227.108 26.6855 226.579 26.8076 226.059 27.0518C225.554 27.2796 225.098 27.6133 224.691 28.0527C224.285 28.4759 223.935 28.9967 223.642 29.6152C223.365 30.2174 223.186 30.8929 223.104 31.6416H232.626Z" fill="white"/>
<path d="M205.592 65H204.35V51.878H205.592V65ZM210.736 65.216C208.882 65.216 207.784 64.172 207.784 62.642C207.784 61.04 209.008 60.032 211.042 59.87L213.922 59.636V59.348C213.922 57.638 212.896 57.098 211.618 57.098C210.106 57.098 209.206 57.782 209.206 58.952H208.072C208.072 57.188 209.512 56.054 211.654 56.054C213.67 56.054 215.146 57.062 215.146 59.366V65H214.102L213.94 63.47C213.4 64.568 212.212 65.216 210.736 65.216ZM211.024 64.208C212.86 64.208 213.922 62.93 213.922 61.04V60.572L211.348 60.77C209.71 60.914 209.044 61.634 209.044 62.606C209.044 63.668 209.836 64.208 211.024 64.208ZM218.718 65H217.638V51.878H218.88V57.98C219.492 56.702 220.68 56.054 222.156 56.054C224.694 56.054 226.17 58.034 226.17 60.662C226.17 63.272 224.658 65.216 222.12 65.216C220.662 65.216 219.456 64.568 218.844 63.218L218.718 65ZM218.898 60.626C218.898 62.642 220.014 64.082 221.922 64.082C223.812 64.082 224.91 62.642 224.91 60.626C224.91 58.628 223.812 57.17 221.922 57.17C220.014 57.17 218.898 58.628 218.898 60.626ZM227.412 62.552H228.6C228.6 63.56 229.356 64.19 230.58 64.19C231.93 64.19 232.722 63.614 232.722 62.678C232.722 61.958 232.362 61.544 231.336 61.292L229.842 60.914C228.33 60.536 227.592 59.744 227.592 58.556C227.592 57.026 228.87 56.054 230.742 56.054C232.578 56.054 233.766 57.062 233.82 58.682H232.614C232.578 57.674 231.876 57.08 230.706 57.08C229.482 57.08 228.798 57.602 228.798 58.538C228.798 59.204 229.266 59.672 230.22 59.906L231.714 60.284C233.226 60.662 233.91 61.364 233.91 62.624C233.91 64.19 232.578 65.216 230.598 65.216C228.636 65.216 227.412 64.172 227.412 62.552Z" fill="white"/>
<defs>
<radialGradient id="paint0_radial_15_648" cx="0" cy="0" r="1" gradientUnits="userSpaceOnUse" gradientTransform="translate(6.75782 -8.20313) rotate(47.6732) scale(121.998)">
<stop stop-color="#EEEAFF"/>
<stop offset="0.291667" stop-color="#BBA5FF"/>
<stop offset="1" stop-color="#402EAB"/>
</radialGradient>
</defs>
</svg>
